<?xml version="1.0" encoding="UTF-8" standalone="no"?>
<svg width="20px" height="20px" viewBox="0 0 20 20" version="1.1" xmlns="http://www.w3.org/2000/svg" xmlns:xlink="http://www.w3.org/1999/xlink" xmlns:sketch="http://www.bohemiancoding.com/sketch/ns">
    <!-- Generator: Sketch 3.2.2 (9983) - http://www.bohemiancoding.com/sketch -->
    <title>Imported Layers</title>
    <desc>Created with Sketch.</desc>
    <defs></defs>
    <g id="Welcome" stroke="none" stroke-width="1" fill="none" fill-rule="evenodd" sketch:type="MSPage">
        <g id="Desktop" sketch:type="MSArtboardGroup" transform="translate(-177.000000, -348.000000)" fill="#FFFFFF">
            <g id="The-warmest-place-fo-+-Slack-chat-for-peopl-+-button" sketch:type="MSLayerGroup" transform="translate(182.000000, 203.000000)">
                <path d="M14.6180104,155.482253 C14.3314586,154.656736 13.4297345,154.220012 12.6042173,154.506564 L10.6616311,155.181046 L9.2085276,150.996046 L11.1514586,150.321564 C11.9768035,150.034839 12.4138724,149.13346 12.1271483,148.307943 C11.8404242,147.482253 10.9390448,147.045529 10.1133552,147.332081 L8.17059657,148.006736 L7.4959414,146.063633 C7.20921726,145.238115 6.30783795,144.801391 5.48232071,145.087943 C4.65663105,145.374667 4.21990691,146.276046 4.50645864,147.101564 L5.18111381,149.044667 L0.996113811,150.497598 L0.321458639,148.554495 C0.0349069148,147.72915 -0.866472396,147.292081 -1.69216205,147.578977 C-2.51767929,147.865529 -2.95440343,148.766908 -2.66785171,149.592426 L-1.99319653,151.535529 L-3.93629998,152.210012 C-4.76181722,152.496736 -5.19871377,153.398115 -4.91198964,154.223633 C-4.6252655,155.049322 -3.7240586,155.486046 -2.89836895,155.199322 L-0.955265499,154.524839 L0.497493122,158.709839 L-1.44543791,159.384495 C-2.27078274,159.671046 -2.70785171,160.572426 -2.42095515,161.397943 C-2.13440343,162.223633 -1.23319653,162.660357 -0.407506878,162.373805 L1.53542416,161.69915 L2.20990691,163.642426 C2.49663105,164.46777 3.39835519,164.904667 4.22370002,164.617943 C5.04938967,164.331391 5.4859414,163.429839 5.19938967,162.604495 L4.5247345,160.661219 L8.7097345,159.208288 L9.38438967,161.151219 C9.6709414,161.976736 10.5726655,162.413633 11.3980104,162.127081 C12.2237,161.840357 12.6604242,160.938805 12.3738724,160.11346 L11.6993897,158.170529 L13.6423207,157.495874 C14.4676655,157.209322 14.9045621,156.30777 14.6180104,155.482253 L14.6180104,155.482253 Z M3.48680347,157.671908 L2.03404485,153.486908 L6.21904485,152.033977 L7.67197588,156.218977 L3.48680347,157.671908 L3.48680347,157.671908 Z" id="Imported-Layers" sketch:type="MSShapeGroup"></path>
            </g>
        </g>
    </g>
</svg>