<?xml version="1.0" encoding="UTF-8" standalone="no"?>
<svg width="17px" height="17px" viewBox="0 0 17 17" version="1.1" xmlns="http://www.w3.org/2000/svg" xmlns:xlink="http://www.w3.org/1999/xlink" xmlns:sketch="http://www.bohemiancoding.com/sketch/ns">
    <!-- Generator: Sketch 3.2.2 (9983) - http://www.bohemiancoding.com/sketch -->
    <title>Imported Layers</title>
    <desc>Created with Sketch.</desc>
    <defs></defs>
    <g id="Welcome" stroke="none" stroke-width="1" fill="none" fill-rule="evenodd" sketch:type="MSPage">
        <g id="Desktop" sketch:type="MSArtboardGroup" transform="translate(-177.000000, -348.000000)" fill="#FFFFFF">
            <g id="The-warmest-place-fo-+-Slack-chat-for-peopl-+-button" sketch:type="MSLayerGroup" transform="translate(182.000000, 203.000000)">
                <path d="M11.6753088,153.909915 C11.4317398,153.208226 10.6652743,152.83701 9.96358467,153.080579 L8.31238639,153.653889 L7.07724846,150.096639 L8.72873984,149.523329 C9.43028295,149.279613 9.80179157,148.513441 9.55807605,147.811751 C9.31436053,147.109915 8.54818812,146.7387 7.84635191,146.982269 L6.19500708,147.555726 L5.62155019,145.904088 C5.37783467,145.202398 4.61166226,144.831182 3.9099726,145.074751 C3.20813639,145.318467 2.83692088,146.084639 3.08048984,146.786329 L3.65394674,148.437967 L0.0966967396,149.672958 L-0.476760157,148.02132 C-0.720329122,147.319777 -1.48650154,146.948269 -2.18833774,147.192131 C-2.8900274,147.4357 -3.26124292,148.201872 -3.01767395,148.903562 L-2.44421705,150.5552 L-4.09585498,151.12851 C-4.79754464,151.372226 -5.16890671,152.138398 -4.92519119,152.840088 C-4.68147567,153.541924 -3.91544981,153.913139 -3.21361361,153.669424 L-1.56197567,153.096113 L-0.327130847,156.653363 L-1.97862223,157.22682 C-2.68016533,157.470389 -3.05167395,158.236562 -2.80781188,158.938251 C-2.56424292,159.640088 -1.79821705,160.011303 -1.09638085,159.767734 L0.555110533,159.194277 L1.12842088,160.846062 C1.37213639,161.547605 2.13860191,161.918967 2.84014502,161.675251 C3.54198122,161.431682 3.91305019,160.665363 3.66948122,159.96382 L3.09602433,158.312036 L6.65327433,157.077045 L7.22673122,158.728536 C7.47030019,159.430226 8.23676571,159.801588 8.93830881,159.558019 C9.64014502,159.314303 10.0113605,158.547984 9.76779157,157.846441 L9.19448122,156.19495 L10.8459726,155.621493 C11.5475157,155.377924 11.9188778,154.611605 11.6753088,153.909915 L11.6753088,153.909915 Z M2.21378295,155.771122 L0.978938119,152.213872 L4.53618812,150.978881 L5.7711795,154.536131 L2.21378295,155.771122 L2.21378295,155.771122 Z" id="Imported-Layers" sketch:type="MSShapeGroup"></path>
            </g>
        </g>
    </g>
</svg>